<svg width="200" height="200" viewBox="0 0 200 200" fill="none" xmlns="http://www.w3.org/2000/svg">
  <!-- Biquíni baseado na imagem fornecida -->
  <g stroke="#333" stroke-width="3" fill="none">
    <!-- Top - parte esquerda -->
    <path d="M60 60 C60 50 70 45 75 45 C80 45 85 50 85 55 L85 75 C85 80 80 85 75 85 C70 85 60 80 60 75 Z" stroke-linejoin="round"/>
    <!-- Listras top esquerdo -->
    <line x1="65" y1="60" x2="80" y2="60" stroke-width="2"/>
    <line x1="65" y1="65" x2="80" y2="65" stroke-width="2"/>
    <line x1="65" y1="70" x2="80" y2="70" stroke-width="2"/>
    <line x1="65" y1="75" x2="80" y2="75" stroke-width="2"/>
    
    <!-- Top - parte direita -->
    <path d="M140 60 C140 50 130 45 125 45 C120 45 115 50 115 55 L115 75 C115 80 120 85 125 85 C130 85 140 80 140 75 Z" stroke-linejoin="round"/>
    <!-- Listras top direito -->
    <line x1="120" y1="60" x2="135" y2="60" stroke-width="2"/>
    <line x1="120" y1="65" x2="135" y2="65" stroke-width="2"/>
    <line x1="120" y1="70" x2="135" y2="70" stroke-width="2"/>
    <line x1="120" y1="75" x2="135" y2="75" stroke-width="2"/>
    
    <!-- Alças do top -->
    <path d="M75 45 L65 30" stroke-linecap="round"/>
    <path d="M125 45 L135 30" stroke-linecap="round"/>
    
    <!-- Centro do top -->
    <path d="M85 65 L115 65" stroke-width="2"/>
    
    <!-- Calcinha - parte esquerda -->
    <path d="M55 120 C55 115 60 110 70 110 L85 110 C90 110 95 115 95 120 L95 145 C95 150 90 155 85 155 L70 155 C60 155 55 150 55 145 Z" stroke-linejoin="round"/>
    <!-- Listras calcinha esquerda -->
    <line x1="60" y1="125" x2="90" y2="125" stroke-width="2"/>
    <line x1="60" y1="132" x2="90" y2="132" stroke-width="2"/>
    <line x1="60" y1="139" x2="90" y2="139" stroke-width="2"/>
    <line x1="60" y1="146" x2="90" y2="146" stroke-width="2"/>
    
    <!-- Calcinha - parte direita -->
    <path d="M145 120 C145 115 140 110 130 110 L115 110 C110 110 105 115 105 120 L105 145 C105 150 110 155 115 155 L130 155 C140 155 145 150 145 145 Z" stroke-linejoin="round"/>
    <!-- Listras calcinha direita -->
    <line x1="110" y1="125" x2="140" y2="125" stroke-width="2"/>
    <line x1="110" y1="132" x2="140" y2="132" stroke-width="2"/>
    <line x1="110" y1="139" x2="140" y2="139" stroke-width="2"/>
    <line x1="110" y1="146" x2="140" y2="146" stroke-width="2"/>
    
    <!-- Amarrações inferiores -->
    <path d="M70 155 L55 175" stroke-linecap="round"/>
    <path d="M85 155 L90 175" stroke-linecap="round"/>
    <path d="M115 155 L110 175" stroke-linecap="round"/>
    <path d="M130 155 L145 175" stroke-linecap="round"/>
  </g>
</svg>

