<svg width="200" height="200" viewBox="0 0 200 200" fill="none" xmlns="http://www.w3.org/2000/svg">
  <!-- Legging baseada na imagem fornecida -->
  <g stroke="#666" stroke-width="3.5" fill="none">
    <!-- Cintura -->
    <path d="M65 30 L135 30" stroke-width="4" stroke-linecap="round"/>
    
    <!-- Perna esquerda externa -->
    <path d="M65 30 L65 50 L75 120 L80 190" stroke-linejoin="round" stroke-linecap="round"/>
    
    <!-- Perna esquerda interna -->
    <path d="M100 50 L95 120 L90 190" stroke-linejoin="round" stroke-linecap="round"/>
    
    <!-- Perna direita interna -->
    <path d="M100 50 L105 120 L110 190" stroke-linejoin="round" stroke-linecap="round"/>
    
    <!-- Perna direita externa -->
    <path d="M135 30 L135 50 L125 120 L120 190" stroke-linejoin="round" stroke-linecap="round"/>
    
    <!-- Costura central -->
    <path d="M100 30 L100 50" stroke-width="2.5"/>
    <path d="M100 50 L100 120" stroke-width="2" stroke-dasharray="5,5"/>
    
    <!-- Detalhes laterais da perna direita -->
    <g stroke="#666" stroke-width="2.5">
      <line x1="125" y1="110" x2="132" y2="110"/>
      <line x1="124" y1="118" x2="131" y2="118"/>
      <line x1="123" y1="126" x2="130" y2="126"/>
      <line x1="122" y1="134" x2="129" y2="134"/>
    </g>
    
    <!-- Barra inferior esquerda -->
    <path d="M80 190 L90 190" stroke-width="3.5" stroke-linecap="round"/>
    
    <!-- Barra inferior direita -->
    <path d="M110 190 L120 190" stroke-width="3.5" stroke-linecap="round"/>
  </g>
</svg>

