<svg width="200" height="200" viewBox="0 0 200 200" fill="none" xmlns="http://www.w3.org/2000/svg">
  <!-- Camiseta baseada na imagem fornecida -->
  <g stroke="#333" stroke-width="3" fill="none">
    <!-- Corpo principal -->
    <path d="M60 70 L60 180 L140 180 L140 70" stroke-linecap="round" stroke-linejoin="round"/>
    
    <!-- Gola -->
    <ellipse cx="100" cy="50" rx="12" ry="8"/>
    <path d="M88 50 C88 50 88 60 88 65" stroke-linecap="round"/>
    <path d="M112 50 C112 50 112 60 112 65" stroke-linecap="round"/>
    
    <!-- Manga direita -->
    <path d="M60 70 L45 60 L30 65 L30 95 L45 90 L60 95" stroke-linecap="round" stroke-linejoin="round"/>
    <!-- Costura manga direita -->
    <path d="M60 70 L70 52" stroke-width="2"/>
    
    <!-- Manga esquerda -->
    <path d="M140 70 L155 60 L170 65 L170 95 L155 90 L140 95" stroke-linecap="round" stroke-linejoin="round"/>
    <!-- Costura manga esquerda -->
    <path d="M140 70 L130 52" stroke-width="2"/>
    
    <!-- Detalhes laterais -->
    <line x1="60" y1="100" x2="55" y2="100" stroke-width="2.5"/>
    <line x1="60" y1="115" x2="55" y2="115" stroke-width="2.5"/>
    <line x1="60" y1="130" x2="55" y2="130" stroke-width="2.5"/>
    
    <line x1="140" y1="100" x2="145" y2="100" stroke-width="2.5"/>
    <line x1="140" y1="115" x2="145" y2="115" stroke-width="2.5"/>
    <line x1="140" y1="130" x2="145" y2="130" stroke-width="2.5"/>
    
    <!-- Barra inferior -->
    <path d="M60 180 L140 180" stroke-width="3.5" stroke-linecap="round"/>
  </g>
</svg>

